<svg width="53" height="75" viewBox="0 0 53 75" fill="none" xmlns="http://www.w3.org/2000/svg">
<g clip-path="url(#clip0_162_117)">
<path d="M26.3428 75.0312C25.7295 75.0312 21.7191 74.9221 18.1176 72.4273C14.8935 70.182 14.1229 69.0437 13.0535 67.4533C12.8176 67.0946 12.5659 66.7204 12.2671 66.315C10.2384 63.5084 9.82945 62.105 9.81372 62.0583V62.0427V62.0271C9.89236 56.5853 9.67218 50.7693 9.18464 50.473C4.92262 49.5686 2.64221 40.2755 2.54785 39.8857C2.53212 39.8389 1.25823 34.4439 0.33034 27.1934C-0.629007 19.709 0.550517 14.4855 4.152 10.2599C8.79147 4.80253 14.6105 2.30773 18.668 1.16948C23.0716 -0.062331 26.4214 3.90918e-05 26.4529 3.90918e-05H26.5473C26.6416 3.90918e-05 29.9757 -0.0467387 34.3321 1.18507C38.3897 2.32332 44.2087 4.81813 48.8481 10.2755C52.4496 14.5011 53.6292 19.7246 52.6698 27.209C51.7419 34.4439 50.468 39.8389 50.4523 39.9013C50.3579 40.2911 48.0933 49.5842 43.8155 50.5042C43.3437 50.8005 43.1235 56.6165 43.2022 62.0583V62.0738V62.0894C43.1864 62.1518 42.7775 63.5395 40.7487 66.3462C40.4499 66.7672 40.1983 67.1258 39.9624 67.4844C38.893 69.0749 38.1223 70.2131 34.8983 72.4585C30.9823 75.1716 26.6259 75.0624 26.5787 75.0624H26.4529C26.4214 75.0312 26.39 75.0312 26.3428 75.0312ZM10.1125 61.9803C10.1754 62.1674 10.6473 63.5551 12.503 66.1279C12.8019 66.5489 13.0535 66.9231 13.2894 67.2817C14.3431 68.841 15.098 69.9637 18.2748 72.1622C22.0965 74.8129 26.3585 74.7194 26.4057 74.7194H26.5473C26.5944 74.7194 30.8565 74.8129 34.6781 72.1622C37.855 69.9637 38.6099 68.8254 39.6636 67.2817C39.8995 66.9231 40.1511 66.5489 40.4499 66.1279C42.3057 63.5551 42.7932 62.1674 42.8404 61.9803C42.8404 61.6996 42.809 58.9553 42.8719 56.2267C43.0292 50.3015 43.4852 50.2079 43.7054 50.1456C47.7944 49.2724 50.0749 39.8701 50.1063 39.7765C50.122 39.7298 51.3802 34.3503 52.3081 27.1154C53.2517 19.7246 52.1036 14.579 48.5651 10.4314C43.9885 5.05201 38.2324 2.5728 34.222 1.45014C29.8657 0.233927 26.5473 0.280704 26.5158 0.280704H26.4214C26.39 0.280704 23.0716 0.218334 18.7152 1.45014C14.7048 2.5728 8.94874 5.05201 4.37218 10.447C0.833605 14.5946 -0.314467 19.7558 0.629153 27.131C1.55705 34.3504 2.83093 39.7298 2.83093 39.7921C2.84666 39.8857 5.1428 49.288 9.23182 50.1612C9.452 50.2079 9.92381 50.3015 10.0654 56.2422C10.144 58.9553 10.1283 61.6996 10.1125 61.9803Z" fill="#D4D1E0"/>
<path d="M28.7488 51.5333C28.3242 51.5333 27.9782 51.4086 27.7266 51.1435C26.9402 50.3639 26.9402 48.4772 26.956 45.8421V45.2807C26.956 44.2672 26.9402 43.3161 26.9245 42.4897C26.8773 40.1352 26.8773 39.0749 27.1604 38.7942C27.2233 38.7319 27.2862 38.7007 27.3649 38.7007C27.8524 38.7007 28.623 40.4003 28.9218 41.1175C29.6138 42.7547 30.1485 44.6258 30.4002 46.2475C30.7619 48.7267 30.6361 50.2859 29.9913 51.0188C29.6767 51.3618 29.2678 51.5333 28.7488 51.5333ZM27.3649 39.0125C27.1604 39.2152 27.1919 40.868 27.2233 42.4741C27.2391 43.3005 27.2548 44.2516 27.2548 45.2651V45.8265C27.2548 48.368 27.2548 50.208 27.9468 50.894C28.1512 51.0967 28.4186 51.1903 28.7488 51.1903C29.1892 51.1903 29.5037 51.0655 29.7396 50.7849C30.3215 50.13 30.4159 48.6487 30.0699 46.2631C29.5352 42.6924 27.8052 39.2152 27.3649 39.0125Z" fill="#D4D1E0"/>
<path d="M27.3649 39.0125C27.1604 39.2152 27.1919 40.868 27.2233 42.4741C27.2391 43.3005 27.2548 44.2516 27.2548 45.2651V45.8265C27.2548 48.368 27.2548 50.208 27.9468 50.894C28.1512 51.0967 28.4186 51.1903 28.7488 51.1903C29.1892 51.1903 29.5037 51.0655 29.7396 50.7849C30.3215 50.13 30.4159 48.6487 30.0699 46.2631C29.5352 42.6924 27.8052 39.2152 27.3649 39.0125Z" fill="#D4D1E0"/>
<path d="M24.1567 51.5333C23.622 51.5333 23.2288 51.3618 22.9143 51.0188C22.2695 50.2859 22.1436 48.7267 22.5054 46.2475C22.7413 44.6258 23.276 42.7547 23.9837 41.1175C24.2982 40.3847 25.0531 38.7007 25.5407 38.7007C25.6193 38.7007 25.6979 38.7319 25.7451 38.7942C26.0282 39.0905 26.0282 40.1352 25.981 42.4897C25.9653 43.3161 25.9496 44.2672 25.9496 45.2807V45.8421C25.9496 48.4616 25.9496 50.3639 25.179 51.1435C24.9116 51.393 24.5656 51.5333 24.1567 51.5333ZM25.5407 39.0125C25.1003 39.2152 23.3546 42.6924 22.8199 46.2942C22.4739 48.6799 22.584 50.1612 23.1502 50.8161C23.3861 51.0811 23.7163 51.2215 24.141 51.2215C24.487 51.2215 24.7386 51.1279 24.9431 50.9252C25.635 50.2391 25.635 48.3992 25.635 45.8421V45.2807C25.635 44.2516 25.6508 43.3161 25.6665 42.4897C25.6979 40.8836 25.7294 39.2152 25.5407 39.0125Z" fill="#D4D1E0"/>
<path d="M25.5407 39.0125C25.1003 39.2152 23.3546 42.6924 22.8199 46.2942C22.4739 48.6799 22.584 50.1612 23.1502 50.8161C23.3861 51.0811 23.7163 51.2215 24.141 51.2215C24.487 51.2215 24.7386 51.1279 24.9431 50.9252C25.635 50.2391 25.635 48.3992 25.635 45.8421V45.2807C25.635 44.2516 25.6508 43.3161 25.6665 42.4897C25.6979 40.8836 25.7294 39.2152 25.5407 39.0125Z" fill="#D4D1E0"/>
<path d="M37.9334 44.2671C35.9518 44.2671 33.8916 43.2536 32.2874 41.4761C30.7776 39.8077 29.8655 37.7183 29.8655 35.894C29.8655 31.5436 34.0174 31.0447 37.1314 31.0447C39.4747 31.0447 41.6135 31.9023 42.9818 33.3991C44.067 34.5842 44.586 36.1122 44.4287 37.6715C43.7839 44.2671 39.6791 44.2671 37.9334 44.2671ZM37.1314 31.3409C32.3189 31.3409 30.18 32.7443 30.18 35.8784C30.18 39.4335 33.8287 43.9553 37.9334 43.9553C39.6005 43.9553 43.5008 43.9553 44.1141 37.6403C44.2557 36.1434 43.7839 34.7401 42.7459 33.6018C41.4248 32.1673 39.3803 31.3409 37.1314 31.3409Z" fill="#D4D1E0"/>
<path d="M37.1314 31.3409C32.3189 31.3409 30.18 32.7443 30.18 35.8784C30.18 39.4335 33.8287 43.9553 37.9334 43.9553C39.6005 43.9553 43.5008 43.9553 44.1141 37.6403C44.2557 36.1434 43.7839 34.7401 42.7459 33.6018C41.4248 32.1673 39.3803 31.3409 37.1314 31.3409Z" fill="#D4D1E0"/>
<path d="M15.3966 44.2671C13.6509 44.2671 9.53047 44.2671 8.90139 37.6559C8.74412 36.081 9.26311 34.5686 10.3483 33.3835C11.7165 31.8866 13.8554 31.0291 16.1987 31.0291C22.7097 31.0291 23.4646 33.8045 23.4646 35.8783C23.4646 37.7027 22.5682 39.792 21.0426 41.4604C19.4228 43.2536 17.3625 44.2671 15.3966 44.2671Z" fill="#D4D1E0"/>
<path d="M27.0819 63.1185C26.8617 63.1185 26.673 63.0873 26.5314 62.9626C26.4371 62.869 26.3899 62.7599 26.3899 62.6039V60.8888C26.3899 60.3898 26.3899 60 26.6101 59.5946C26.9561 58.9397 27.5222 58.8773 27.9311 58.8773C28.4659 58.8773 29.0006 59.2983 29.1264 59.8285C29.2365 60.2806 29.2365 60.4989 29.2365 60.9199V61.1382C29.2365 61.2318 29.2365 61.3253 29.2365 61.4189C29.2365 61.9646 29.2522 62.3544 28.9534 62.7599C28.686 63.1185 28.4816 63.1029 28.0884 63.0873C27.9783 63.0873 27.8525 63.0717 27.711 63.0717C27.6166 63.0717 27.5065 63.0717 27.4121 63.0873C27.2863 63.1029 27.1762 63.1185 27.0819 63.1185ZM27.9311 59.1892C27.4122 59.1892 27.0976 59.3607 26.8932 59.7505C26.7044 60.0779 26.7202 60.4054 26.7202 60.8888V62.6039C26.7202 62.6819 26.7516 62.7131 26.7673 62.7287C26.8617 62.8222 27.1448 62.8066 27.3964 62.791C27.5065 62.791 27.6166 62.7754 27.711 62.7754C27.8682 62.7754 27.9941 62.7754 28.1041 62.791C28.4659 62.8066 28.5445 62.8066 28.7018 62.5883C28.9377 62.2609 28.9377 61.949 28.9219 61.4345C28.9219 61.3409 28.9219 61.2474 28.9219 61.1538V60.9355C28.9219 60.5145 28.9219 60.343 28.8276 59.922C28.7175 59.5166 28.3243 59.1892 27.9311 59.1892Z" fill="#D4D1E0"/>
<path d="M38.0437 58.6902C37.9965 58.6902 37.9651 58.6747 37.9179 58.6591C37.7921 58.5811 37.8235 58.4252 37.8393 58.316C37.855 58.2381 37.8707 58.1289 37.8393 58.0821C37.7292 57.9262 37.7763 57.63 37.8393 57.209C37.9179 56.632 38.028 55.8524 37.6977 55.447C37.1944 54.8545 38.0752 52.5312 38.1066 52.4532C38.3268 51.8919 39.0817 51.1902 39.6479 50.8784C39.9467 50.7069 40.1668 50.5198 40.3556 50.3638C40.7487 50.0364 41.0633 49.7869 41.6137 50.0208C42.1485 50.2547 42.3372 50.5821 42.2585 51.1591C42.1642 51.7828 41.9912 52.2194 41.7867 52.7183L41.7553 52.7807C41.5666 53.264 38.893 58.2692 38.374 58.5811C38.2639 58.6279 38.1381 58.6902 38.0437 58.6902ZM41.2048 50.2079C41.0004 50.2079 40.8274 50.3482 40.5443 50.5665C40.3556 50.7225 40.1039 50.9252 39.7894 51.1123C39.2075 51.4241 38.547 52.0946 38.374 52.5312C38.028 53.4044 37.6663 54.9169 37.9179 55.2131C38.3268 55.7277 38.2167 56.5853 38.1223 57.209C38.0909 57.4584 38.0437 57.8015 38.0752 57.8794C38.1538 58.0198 38.1381 58.1757 38.1223 58.3004C38.1381 58.3004 38.1538 58.2848 38.1695 58.2692C38.5312 58.051 41.0947 53.4356 41.425 52.6248L41.4565 52.5624C41.6609 52.0478 41.8182 51.6424 41.9125 51.0655C41.9755 50.5821 41.8182 50.4106 41.4565 50.2547C41.3778 50.2391 41.2835 50.2079 41.2048 50.2079Z" fill="#D4D1E0"/>
<path d="M30.2588 62.9002C30.1959 62.9002 30.133 62.9002 30.0701 62.9002C29.9915 62.9002 29.9286 62.9002 29.8499 62.9002C29.5983 62.9002 29.3309 62.9002 29.1737 62.7442C29.095 62.6663 29.0479 62.5571 29.0479 62.4168V60.8576C29.0479 60.3898 29.0479 60.0623 29.2051 59.6881C29.3938 59.2203 29.7398 58.9865 30.2431 58.9865C30.6677 58.9865 31.0766 59.3763 31.1867 59.8908C31.2654 60.2962 31.2654 60.4833 31.2654 60.8576V61.0914C31.2654 61.2006 31.2654 61.3097 31.2654 61.4033C31.2654 61.8555 31.2811 62.1361 31.1395 62.4168C30.9508 62.8222 30.6992 62.9002 30.2588 62.9002ZM29.9286 62.5727C29.9757 62.5727 30.0386 62.5727 30.0858 62.5727C30.652 62.5883 30.7464 62.526 30.8722 62.2765C30.9823 62.0582 30.9665 61.8243 30.9665 61.4033C30.9665 61.3097 30.9665 61.2006 30.9665 61.0759V60.842C30.9665 60.4833 30.9665 60.3118 30.8879 59.9376C30.8093 59.5478 30.4947 59.2827 30.2588 59.2827C29.8814 59.2827 29.6455 59.4386 29.5039 59.7973C29.3624 60.1091 29.3624 60.4054 29.3624 60.842V62.4012C29.3624 62.4792 29.3938 62.4948 29.3938 62.5104C29.4568 62.5727 29.6612 62.5727 29.8342 62.5727C29.8814 62.5727 29.8971 62.5727 29.9286 62.5727Z" fill="#D4D1E0"/>
<path d="M34.0017 62.3077C33.3883 62.3077 33.2625 60.9511 33.2625 60.686V60.1403C33.2625 59.9844 33.2468 59.8908 33.2468 59.7973C33.231 59.6258 33.2153 59.5166 33.3097 59.2515C33.4512 58.8149 33.7028 58.5811 34.0646 58.5811C34.3791 58.5811 34.7565 58.9085 34.8352 59.3919C34.8666 59.6569 34.8509 59.8285 34.8352 60.0312C34.8352 60.1091 34.8195 60.1871 34.8195 60.265C34.8195 60.2806 34.8195 60.2962 34.8195 60.3118C34.8195 60.421 34.8195 60.5145 34.8195 60.5769C34.8195 60.6237 34.8195 60.686 34.8195 60.7484C34.8037 61.0447 34.5364 62.3077 34.0017 62.3077ZM33.5613 60.3274V60.7016C33.5613 61.185 33.7657 62.0114 33.9859 62.0114C34.1589 62.0114 34.4735 61.2006 34.4735 60.764V60.6237C34.4735 60.5925 34.4735 60.5457 34.4735 60.5145C34.4735 60.3118 34.4892 60.1559 34.5049 60.0312C34.5206 59.844 34.5364 59.6881 34.5049 59.4698C34.4577 59.1424 34.2061 58.9241 34.0488 58.9241C33.9073 58.9241 33.7186 58.9709 33.5927 59.3763C33.5298 59.579 33.5298 59.6413 33.5456 59.7973C33.5456 59.8908 33.5613 60 33.5613 60.1715V60.3274Z" fill="#D4D1E0"/>
<path d="M31.9573 62.5727C31.6113 62.5727 31.3911 62.5104 31.2496 62.4012C31.171 62.3233 31.1238 62.2297 31.1238 62.1206V60.4989C31.1238 60.0468 31.1238 59.7037 31.281 59.3451C31.4855 58.8773 31.8315 58.6434 32.3348 58.6434C32.7751 58.6434 33.184 59.0332 33.2941 59.5478C33.3885 59.9532 33.3727 60.1403 33.3727 60.5145V60.7484V60.9355C33.3727 61.4345 33.3727 61.6528 33.2312 62.105C33.0582 62.5572 32.7122 62.5572 32.2404 62.5572H32.1618C32.0831 62.5727 32.0045 62.5727 31.9573 62.5727ZM32.3348 58.9553C32.0674 58.9553 31.7686 59.0177 31.5799 59.4698C31.454 59.7661 31.454 60.0624 31.454 60.4989V62.1206C31.454 62.1517 31.454 62.1517 31.4698 62.1673C31.517 62.2141 31.6585 62.2765 32.146 62.2609H32.2247C32.7122 62.2609 32.838 62.2453 32.9167 62.0114C33.0425 61.6216 33.0425 61.4345 33.0425 60.9511V60.764V60.5301C33.0425 60.1559 33.0425 60 32.9638 59.6258C32.9009 59.2515 32.6178 58.9553 32.3348 58.9553Z" fill="#D4D1E0"/>
<path d="M35.2128 61.5749C34.9454 61.5749 34.6624 61.3254 34.6624 60.8888V60.0156C34.6624 59.5946 34.6624 59.2984 34.7253 58.9865C34.8353 58.5811 35.0241 58.3784 35.2914 58.3784C35.5431 58.3784 35.7475 58.6903 35.7947 59.1425C35.8419 59.5167 35.8419 59.6726 35.8419 60.0936C35.8419 60.6237 35.8419 60.6237 35.7947 61.0291C35.779 61.3566 35.5588 61.5749 35.2128 61.5749ZM35.2914 58.6903C35.2443 58.6903 35.1184 58.6903 35.0398 59.0645C34.9926 59.3296 34.9926 59.6258 34.9926 60.0156V60.8888C34.9926 61.1383 35.1342 61.263 35.2285 61.263C35.4015 61.263 35.4959 61.1695 35.5116 60.998C35.5431 60.6082 35.5431 60.6081 35.5431 60.0936C35.5431 59.6726 35.5431 59.5323 35.5116 59.1736C35.4644 58.8462 35.3386 58.6903 35.2914 58.6903Z" fill="#D4D1E0"/>
<path d="M36.2191 61.0915C35.9518 61.0915 35.6687 60.842 35.6687 60.4054V59.5322C35.6687 59.1112 35.6687 58.815 35.7316 58.5031C35.8417 58.0977 36.0304 57.895 36.2978 57.895C36.5494 57.895 36.7539 58.2069 36.801 58.6591C36.8482 59.0333 36.8482 59.1892 36.8482 59.6102C36.8482 60.1403 36.8482 60.1403 36.801 60.5457C36.7853 60.8732 36.5494 61.0915 36.2191 61.0915ZM36.2978 58.2069C36.2506 58.2069 36.1248 58.2069 36.0462 58.5811C35.999 58.8462 35.999 59.1424 35.999 59.5322V60.4054C35.999 60.6549 36.1405 60.7796 36.2349 60.7796C36.4079 60.7796 36.5022 60.6861 36.518 60.5146C36.5494 60.1248 36.5494 60.1247 36.5494 59.6102C36.5494 59.1892 36.5494 59.0489 36.518 58.6902C36.4551 58.3784 36.345 58.2225 36.2978 58.2069Z" fill="#D4D1E0"/>
<path d="M37.1942 60.4055C36.9269 60.4055 36.6438 60.156 36.6438 59.7194V58.8462C36.6438 58.4252 36.6438 58.1289 36.7067 57.8171C36.8168 57.4117 37.0055 57.209 37.2729 57.209C37.5245 57.209 37.729 57.5208 37.7761 57.973C37.8233 58.3472 37.8233 58.5032 37.8233 58.9242C37.8233 59.4543 37.8233 59.4543 37.7761 59.8597C37.7604 60.1872 37.5402 60.4055 37.1942 60.4055ZM37.2729 57.5208C37.2257 57.5208 37.0999 57.5208 37.0212 57.8951C36.9741 58.1601 36.9741 58.4564 36.9741 58.8462V59.7194C36.9741 59.9689 37.1156 60.0936 37.21 60.0936C37.383 60.0936 37.4773 60 37.4931 59.8285C37.5245 59.4387 37.5245 59.4387 37.5245 58.9242C37.5245 58.5032 37.5245 58.3628 37.4931 58.0042C37.4459 57.6768 37.3201 57.5208 37.2729 57.5208Z" fill="#D4D1E0"/>
<path d="M27.302 65.5977C27.2391 65.5977 27.1762 65.5977 27.1132 65.5822C26.7515 65.5354 26.4213 65.2079 26.3741 64.8649C26.3426 64.5998 26.3583 64.4595 26.3898 64.2256C26.3898 64.1788 26.4055 64.1165 26.4055 64.0541L26.4213 63.8982C26.4527 63.5707 26.4842 63.3836 26.6257 63.1809C26.8616 62.8846 27.1132 62.8846 27.5851 62.9626C27.6322 62.9626 27.6637 62.9782 27.6951 62.9782C27.994 63.025 28.4658 63.1029 28.4186 63.5083L28.2928 64.4595C28.2613 64.7402 28.2299 64.9896 28.0254 65.2235C27.8839 65.473 27.6322 65.5977 27.302 65.5977ZM27.1762 63.2433C27.0189 63.2433 26.956 63.29 26.8931 63.3836C26.7987 63.5239 26.783 63.6643 26.7358 63.9605L26.7201 64.1165C26.7043 64.1788 26.7043 64.2412 26.7043 64.288C26.6729 64.5063 26.6572 64.6154 26.6886 64.8337C26.7201 65.0676 26.956 65.2547 27.1447 65.2859C27.4592 65.3327 27.6637 65.2547 27.8052 65.052C27.9468 64.8961 27.9625 64.709 27.994 64.4439L28.1198 63.4928C28.1355 63.3992 27.9782 63.3524 27.6637 63.3056C27.6165 63.3056 27.5851 63.29 27.5536 63.29C27.3806 63.2589 27.2705 63.2433 27.1762 63.2433Z" fill="#D4D1E0"/>
<path d="M29.1263 65.5665C28.7961 65.5665 28.4029 65.3326 28.3085 64.9272C28.2456 64.6465 28.2456 64.5218 28.2456 64.2723C28.2456 64.2255 28.2456 64.1632 28.2456 64.1008V63.9293C28.2456 63.5862 28.2456 63.3835 28.3714 63.1652C28.5601 62.8222 28.8118 62.791 29.2993 62.8066H29.3465C29.6139 62.8066 29.9127 62.8066 30.0857 62.9625C30.1643 63.0405 30.1958 63.134 30.1958 63.2432V64.132C30.1958 64.4906 30.1958 64.7557 30.0385 65.0519C29.8498 65.395 29.5509 65.5665 29.1263 65.5665ZM29.1106 63.1029C28.7646 63.1029 28.7174 63.1652 28.6388 63.29C28.5601 63.4459 28.5601 63.5862 28.5601 63.8981V64.0696C28.5601 64.132 28.5601 64.1943 28.5601 64.2567C28.5601 64.4906 28.5601 64.5997 28.6231 64.8336C28.686 65.0831 28.9376 65.239 29.142 65.239C29.4566 65.239 29.6453 65.1455 29.7711 64.9116C29.8969 64.6777 29.8969 64.475 29.8969 64.132V63.2432C29.8969 63.1964 29.8812 63.1808 29.8812 63.1808C29.8026 63.1029 29.5509 63.1029 29.3622 63.1029H29.2993C29.2207 63.1029 29.1578 63.1029 29.1106 63.1029Z" fill="#D4D1E0"/>
<path d="M30.9979 65.6757C30.6362 65.6757 30.2587 65.3483 30.1801 64.9429C30.1172 64.6466 30.1172 64.5063 30.1172 64.2256C30.1172 64.1632 30.1172 64.1009 30.1172 64.0229V63.8358C30.1172 63.446 30.1172 63.2277 30.2273 62.9782C30.3531 62.7131 30.6047 62.6196 30.8406 62.5416C30.9193 62.5104 30.9979 62.4792 31.0923 62.4325C31.2653 62.3389 31.4854 62.3545 31.6899 62.4792C31.9258 62.6196 32.0673 62.8535 32.0673 63.0717V64.0853C32.0673 64.5063 32.0673 64.8025 31.9101 65.1144C31.6742 65.6289 31.2653 65.6757 30.9979 65.6757ZM31.3282 62.6975C31.2967 62.6975 31.2653 62.6975 31.2338 62.7131C31.1394 62.7599 31.0451 62.7911 30.9507 62.8223C30.7148 62.9158 30.5733 62.9626 30.5104 63.1029C30.4317 63.29 30.4317 63.446 30.4317 63.8202V64.0073C30.4317 64.0853 30.4317 64.1632 30.4317 64.21C30.4317 64.4751 30.4317 64.5998 30.4946 64.8649C30.5575 65.1456 30.8092 65.3483 31.0136 65.3483C31.3282 65.3483 31.5169 65.2391 31.6427 64.974C31.7685 64.7246 31.7685 64.4907 31.7685 64.0853V63.0717C31.7685 62.947 31.6742 62.8223 31.5483 62.7443C31.454 62.7131 31.3753 62.6975 31.3282 62.6975Z" fill="#D4D1E0"/>
<path d="M32.8379 66.081C32.4605 66.081 32.0988 65.7068 32.0201 65.2391C31.9572 64.8804 31.9572 64.6933 31.9572 64.3659C31.9572 64.2879 31.9572 64.21 31.9572 64.1164C31.9572 63.8825 31.9415 63.711 31.9415 63.5707C31.9258 63.3524 31.9258 63.1808 31.9572 62.9781C32.0358 62.4792 32.4133 62.4324 32.7278 62.4012C32.9166 62.3856 33.121 62.3544 33.2625 62.2453C33.4198 62.1206 33.5456 62.1517 33.6085 62.1829C33.8445 62.2921 33.8916 62.7287 33.8916 62.9781V64.3659C33.8916 64.7869 33.8916 65.1143 33.7344 65.4418C33.5771 65.8628 33.2783 66.081 32.8379 66.081ZM33.4985 62.4636C33.4985 62.4636 33.4827 62.4792 33.467 62.4792C33.2468 62.6507 32.9952 62.6819 32.7593 62.7131C32.429 62.7443 32.3032 62.7754 32.256 63.0249C32.2246 63.1964 32.2246 63.3368 32.2403 63.5551C32.2403 63.6954 32.256 63.8825 32.256 64.1164C32.256 64.21 32.256 64.2879 32.256 64.3659C32.256 64.6777 32.256 64.8492 32.3189 65.1767C32.3818 65.5353 32.6335 65.7692 32.8379 65.7692C33.0738 65.7692 33.3097 65.7068 33.4513 65.3014C33.5771 65.0208 33.5771 64.7557 33.5771 64.3503V62.9625C33.5771 62.6819 33.5299 62.5104 33.4985 62.4636Z" fill="#D4D1E0"/>
<path d="M34.395 64.896C34.0962 64.896 33.8446 64.631 33.7659 64.2256C33.7188 63.8825 33.7188 63.7734 33.7188 63.3836C33.7188 62.9314 33.7188 62.6975 33.8131 62.448C33.9075 62.2141 33.9704 62.1674 34.1748 62.027C34.2377 61.9802 34.3164 61.9335 34.4265 61.8555C34.4736 61.8243 34.5208 61.7619 34.5837 61.6996C34.6938 61.5748 34.8196 61.4345 34.9769 61.4969C35.1342 61.5592 35.1656 61.7619 35.1656 62.1362V63.4148C35.1656 63.789 35.1656 64.054 35.087 64.3347C34.9455 64.7245 34.7253 64.896 34.395 64.896ZM34.8354 61.8867C34.8196 61.9023 34.8196 61.9023 34.8039 61.9179C34.741 61.9802 34.6781 62.0582 34.5995 62.1206C34.4894 62.1985 34.4107 62.2609 34.3478 62.2921C34.1748 62.4012 34.1591 62.4168 34.1119 62.5572C34.049 62.7443 34.049 62.947 34.049 63.3836C34.049 63.7734 34.049 63.8669 34.0805 64.1788C34.1277 64.4127 34.2535 64.5842 34.395 64.5842C34.5366 64.5842 34.6781 64.553 34.7725 64.2568C34.8354 64.0229 34.8354 63.789 34.8354 63.4303V62.1518C34.8354 62.0426 34.8354 61.9491 34.8354 61.8867Z" fill="#D4D1E0"/>
<path d="M35.6059 64.1164C35.3071 64.1164 35.0555 63.8514 34.9769 63.4459C34.9297 63.1029 34.9297 62.9938 34.9297 62.604C34.9297 62.1518 34.9297 61.9179 35.0241 61.6684C35.1499 61.3566 35.3543 61.2162 35.7003 61.0759C35.8576 61.0135 36.0778 60.9356 36.235 61.0447C36.2979 61.0915 36.3923 61.185 36.3923 61.3877V62.6663C36.3923 63.0405 36.3923 63.3212 36.2822 63.6019C36.1721 63.9293 35.9519 64.1164 35.6059 64.1164ZM36.0463 61.2786C36.0149 61.2786 35.9519 61.2942 35.8261 61.341C35.5116 61.4813 35.3858 61.5748 35.3229 61.762C35.26 61.9491 35.26 62.1518 35.26 62.5884C35.26 62.9782 35.26 63.0717 35.2914 63.3836C35.3386 63.6175 35.4644 63.789 35.6059 63.789C35.7475 63.789 35.889 63.7578 35.9834 63.4615C36.0778 63.2277 36.0778 62.9938 36.0778 62.6351V61.3566C36.0778 61.2942 36.062 61.2786 36.062 61.2786C36.0778 61.2786 36.062 61.2786 36.0463 61.2786Z" fill="#D4D1E0"/>
<path d="M36.9114 62.9158C36.6283 62.9158 36.3609 62.6819 36.2823 62.3545C36.2351 62.0738 36.2351 61.9647 36.2351 61.6528C36.2351 61.263 36.2351 61.0759 36.3295 60.8732C36.4238 60.6705 36.5025 60.6237 36.6912 60.5302C36.7541 60.499 36.8327 60.4522 36.9428 60.3898C36.99 60.3586 37.0372 60.3119 37.1001 60.2651C37.2102 60.1559 37.3517 60.0468 37.4933 60.1092C37.6505 60.1715 37.6663 60.3742 37.6663 60.6549V61.6996C37.6663 61.9959 37.6663 62.2141 37.5719 62.448C37.4146 62.869 37.1158 62.9158 36.9114 62.9158ZM37.3517 60.4522C37.336 60.4678 37.3203 60.4834 37.3045 60.4834C37.2416 60.5302 37.1787 60.5925 37.1001 60.6393C36.99 60.7017 36.8956 60.7484 36.8327 60.7796C36.6597 60.8732 36.6597 60.8732 36.6126 60.9823C36.5496 61.1227 36.5496 61.2942 36.5496 61.6372C36.5496 61.9491 36.5496 62.027 36.5811 62.2765C36.6283 62.448 36.7541 62.5884 36.8956 62.5884C37.0686 62.5884 37.1945 62.5416 37.2731 62.3389C37.336 62.1518 37.336 61.9803 37.336 61.6996V60.6549C37.3517 60.5613 37.3517 60.499 37.3517 60.4522Z" fill="#D4D1E0"/>
<path d="M25.9025 63.1809C25.8081 63.1809 25.698 63.1809 25.588 63.1653C25.4936 63.1653 25.3835 63.1497 25.2891 63.1497C25.1319 63.1497 25.0218 63.1497 24.9117 63.1653C24.5185 63.1809 24.3141 63.1965 24.0467 62.8379C23.7479 62.4325 23.7479 62.027 23.7636 61.4969C23.7636 61.4033 23.7636 61.3098 23.7636 61.2162V60.9979C23.7636 60.5769 23.7636 60.3742 23.8737 59.9065C23.9995 59.3607 24.5342 58.9553 25.069 58.9553C25.4779 58.9553 26.044 59.0333 26.39 59.6882C26.6102 60.078 26.6102 60.4834 26.6102 60.9823V62.6975C26.6102 62.8535 26.563 62.9626 26.4687 63.0562C26.3271 63.1497 26.1227 63.1809 25.9025 63.1809ZM25.2891 62.8379C25.3992 62.8379 25.4936 62.8379 25.6037 62.8535C25.8553 62.869 26.1384 62.8846 26.2328 62.7911C26.2485 62.7755 26.2799 62.7443 26.2799 62.6663V60.9512C26.2799 60.4678 26.2799 60.1404 26.1069 59.8129C25.9025 59.4231 25.588 59.2516 25.069 59.2516C24.6758 59.2516 24.2826 59.579 24.1882 59.9688C24.0939 60.3898 24.0939 60.5614 24.0939 60.9823V61.2006C24.0939 61.3098 24.0939 61.4033 24.0939 61.4813C24.0939 61.9959 24.0782 62.3233 24.3141 62.6352C24.4713 62.8535 24.55 62.8535 24.9117 62.8379C25.0061 62.8379 25.1476 62.8379 25.2891 62.8379Z" fill="#D4D1E0"/>
<path d="M14.9406 58.7526C14.8305 58.7526 14.7204 58.6902 14.626 58.6278C14.0913 58.316 11.4335 53.3108 11.2447 52.8274L11.2133 52.7651C11.0088 52.2505 10.8358 51.8139 10.7415 51.2058C10.6628 50.6289 10.8516 50.2859 11.3863 50.0676C11.9367 49.8337 12.2513 50.0831 12.6444 50.4106C12.8332 50.5665 13.0533 50.7536 13.3521 50.9251C13.9183 51.237 14.6732 51.9387 14.8934 52.5C14.9091 52.5156 15.8213 54.9012 15.3023 55.4938C14.972 55.8992 15.0821 56.6788 15.1608 57.2401C15.2237 57.6767 15.2551 57.9574 15.1608 58.1133C15.1293 58.1601 15.145 58.2692 15.1608 58.3472C15.1765 58.4719 15.1922 58.6123 15.0821 58.6902C15.0192 58.737 14.9878 58.7526 14.9406 58.7526ZM11.7794 50.2703C11.7008 50.2703 11.6065 50.2859 11.5121 50.3326C11.1504 50.4886 10.9931 50.6445 11.056 51.1434C11.1504 51.7204 11.3076 52.1258 11.5121 52.6403L11.5435 52.7027C11.8581 53.5135 14.4373 58.1289 14.799 58.3472C14.8148 58.3628 14.8305 58.3628 14.8462 58.3784C14.8305 58.2536 14.8148 58.0977 14.8934 57.9574C14.9406 57.8794 14.8934 57.5364 14.8462 57.2869C14.7519 56.6632 14.6418 55.79 15.0507 55.2911C15.3023 54.9948 14.9406 53.4823 14.5946 52.6091C14.4216 52.1725 13.7611 51.5021 13.1949 51.1902C12.8803 51.0031 12.6287 50.8004 12.44 50.6445C12.1569 50.4106 11.9996 50.2703 11.7794 50.2703Z" fill="#D4D1E0"/>
<path d="M22.7254 62.9625C22.2693 62.9625 22.0177 62.8846 21.829 62.4792C21.6874 62.1985 21.7032 61.9179 21.7032 61.4657C21.7032 61.3721 21.7032 61.263 21.7032 61.1538V60.9199C21.7032 60.5457 21.7032 60.3586 21.7818 59.9532C21.8919 59.4386 22.3008 59.0488 22.7254 59.0488C23.2287 59.0488 23.5747 59.2827 23.7634 59.7505C23.9207 60.1091 23.9207 60.4522 23.9207 60.9199V62.4792C23.9207 62.6195 23.8735 62.7287 23.7948 62.8066C23.6376 62.9625 23.3702 62.9625 23.1186 62.9625C23.04 62.9625 22.977 62.9625 22.8984 62.9625C22.8512 62.9625 22.7883 62.9625 22.7254 62.9625ZM22.7254 59.3451C22.4895 59.3451 22.175 59.6102 22.0963 60C22.0177 60.3742 22.0177 60.5457 22.0177 60.9043V61.1382C22.0177 61.2474 22.0177 61.3565 22.0177 61.4501C22.0177 61.8711 22.0177 62.105 22.1121 62.3233C22.2379 62.5883 22.3165 62.6351 22.8984 62.6195C22.977 62.6195 23.0557 62.6195 23.1343 62.6195C23.3073 62.6195 23.5118 62.6195 23.5747 62.5571C23.5904 62.5571 23.6061 62.526 23.6061 62.448V60.8887C23.6061 60.4522 23.6061 60.1559 23.4803 59.844C23.3388 59.501 23.1029 59.3451 22.7254 59.3451Z" fill="#D4D1E0"/>
<path d="M18.9039 62.37C18.8882 62.37 18.8882 62.37 18.8725 62.37C18.6366 62.3544 18.4478 62.1205 18.3063 61.6684C18.2119 61.3565 18.149 60.9823 18.1648 60.764C18.1648 60.7016 18.1648 60.6548 18.1648 60.6081C18.1648 60.5457 18.1648 60.4521 18.1805 60.343C18.1805 60.3274 18.1805 60.3118 18.1805 60.2962C18.1805 60.2027 18.1805 60.1247 18.1805 60.0623C18.1805 59.8596 18.1648 59.6881 18.2277 59.423C18.322 58.9397 18.7309 58.6278 19.0455 58.659C19.4072 58.6746 19.6588 58.9241 19.7689 59.3763C19.8476 59.6413 19.8318 59.7505 19.8004 59.922C19.7846 60 19.7689 60.1091 19.7689 60.265V60.3742C19.7689 60.3742 19.7689 60.3742 19.7689 60.3898L19.7375 60.8264C19.706 61.0602 19.5016 62.37 18.9039 62.37ZM18.4793 60.6548V60.7952C18.4636 60.9511 18.5108 61.2785 18.6208 61.5904C18.7467 61.9802 18.8725 62.0738 18.9039 62.0738C19.1241 62.0738 19.3757 61.2785 19.4072 60.7952L19.4229 60.421L19.4387 60.2494C19.4544 60.0779 19.4701 59.9688 19.4701 59.8908C19.4858 59.7349 19.5016 59.6725 19.4544 59.4698C19.36 59.0644 19.1713 59.002 19.0297 58.9864C18.8725 58.9708 18.6051 59.1736 18.5422 59.501C18.495 59.7193 18.495 59.8752 18.5108 60.0623C18.5108 60.2027 18.5108 60.343 18.5108 60.5457C18.495 60.5769 18.495 60.6081 18.4793 60.6548Z" fill="#D4D1E0"/>
<path d="M21.0271 62.6352C20.9642 62.6352 20.9013 62.6352 20.8226 62.6352H20.7597C20.2879 62.6352 19.9262 62.6352 19.7689 62.183C19.6117 61.7308 19.6274 61.5125 19.6274 61.0135V60.8264V60.5925C19.6274 60.2183 19.6274 60.0312 19.706 59.6258C19.8161 59.1112 20.225 58.7214 20.6654 58.7214C21.1686 58.7214 21.4989 58.9553 21.7191 59.4231C21.8764 59.7817 21.8764 60.1092 21.8764 60.5769V62.1986C21.8764 62.3077 21.8292 62.4013 21.7505 62.4792C21.609 62.5728 21.3888 62.6352 21.0271 62.6352ZM20.8384 62.3077C21.3259 62.3389 21.4832 62.2609 21.5304 62.2142C21.5461 62.1986 21.5461 62.183 21.5461 62.1674V60.5458C21.5461 60.1092 21.5461 59.8285 21.4203 59.5167C21.2158 59.0645 20.917 59.0021 20.6654 59.0021C20.3823 59.0021 20.0992 59.2828 20.0206 59.657C19.9419 60.0312 19.9419 60.1871 19.9419 60.5614V60.7952V60.9824C19.9419 61.4657 19.9419 61.6528 20.0677 62.0426C20.1621 62.2765 20.2722 62.2921 20.7597 62.2921L20.8384 62.3077Z" fill="#D4D1E0"/>
<path d="M17.7714 61.6373C17.4411 61.6373 17.2052 61.419 17.1895 61.0759C17.1581 60.6861 17.1423 60.6705 17.1423 60.156C17.1423 59.735 17.1423 59.5791 17.1895 59.2048C17.2367 58.7526 17.4411 58.4408 17.6928 58.4408C17.9601 58.4408 18.1489 58.6435 18.259 59.0489C18.3219 59.3608 18.3219 59.657 18.3219 60.078V60.9512C18.3219 61.3722 18.0388 61.6373 17.7714 61.6373ZM17.6928 58.7526C17.6456 58.7682 17.5355 58.9242 17.4883 59.236C17.4569 59.5946 17.4569 59.7194 17.4569 60.156C17.4569 60.6705 17.4569 60.6705 17.4883 61.0603C17.5041 61.2475 17.5984 61.3254 17.7714 61.3254C17.8658 61.3254 18.0073 61.2163 18.0073 60.9512V60.078C18.0073 59.6882 18.0073 59.3919 17.9444 59.1113C17.8501 58.7526 17.7242 58.7526 17.6928 58.7526Z" fill="#D4D1E0"/>
<path d="M16.7651 61.1539C16.4348 61.1539 16.1989 60.9356 16.1832 60.5925C16.1517 60.2027 16.136 60.1871 16.136 59.6726C16.136 59.2516 16.136 59.0957 16.1832 58.7214C16.2303 58.2692 16.4348 57.9574 16.6864 57.9574C16.9538 57.9574 17.1425 58.1601 17.2526 58.5655C17.3155 58.8774 17.3155 59.1736 17.3155 59.5946V60.4678C17.3155 60.9044 17.0324 61.1539 16.7651 61.1539ZM16.6864 58.2692C16.6393 58.2848 16.5292 58.4408 16.482 58.7526C16.4505 59.1112 16.4505 59.236 16.4505 59.6726C16.4505 60.1871 16.4505 60.1871 16.482 60.5769C16.4977 60.764 16.5921 60.842 16.7651 60.842C16.8594 60.842 17.001 60.7173 17.001 60.4678V59.5946C17.001 59.2048 17.001 58.9085 16.9381 58.6279C16.8594 58.2692 16.7336 58.2692 16.6864 58.2692Z" fill="#D4D1E0"/>
<path d="M15.79 60.4678C15.4597 60.4678 15.2238 60.2495 15.2081 59.9065C15.1766 59.5167 15.1609 59.5011 15.1609 58.9865C15.1609 58.5655 15.1609 58.4096 15.2081 58.0354C15.2553 57.5832 15.4597 57.2714 15.7113 57.2714C15.9787 57.2714 16.1831 57.4741 16.2775 57.8795C16.3404 58.1913 16.3404 58.4876 16.3404 58.9086V59.7818C16.3404 60.2028 16.0573 60.4678 15.79 60.4678ZM15.7113 57.5832C15.6642 57.5988 15.5541 57.7547 15.5069 58.0666C15.4754 58.4252 15.4754 58.5499 15.4754 58.9865C15.4754 59.5011 15.4754 59.5011 15.5069 59.8909C15.5226 60.078 15.617 60.156 15.79 60.156C15.8843 60.156 16.0259 60.0312 16.0259 59.7818V58.9086C16.0259 58.5188 16.0259 58.2225 15.963 57.9418C15.8686 57.5832 15.7428 57.5832 15.7113 57.5832Z" fill="#D4D1E0"/>
<path d="M25.7136 65.6601C25.289 65.6601 24.9902 65.5042 24.8172 65.1923C24.6599 64.9428 24.6599 64.6934 24.6599 64.4127V63.4615C24.6599 63.0561 25.1317 63.0406 25.4463 63.025C25.4777 63.025 25.5249 63.025 25.5564 63.025C26.0439 63.0094 26.2955 63.025 26.4842 63.3524C26.6101 63.5707 26.6101 63.7734 26.6101 64.1008V64.2568C26.6101 64.3191 26.6101 64.3815 26.6101 64.4283C26.6101 64.6622 26.6101 64.8025 26.5472 65.052C26.4371 65.3794 26.0753 65.6601 25.7136 65.6601ZM25.7451 63.3212C25.6979 63.3212 25.635 63.3212 25.5564 63.3212C25.5249 63.3212 25.4777 63.3212 25.4463 63.3212C25.1317 63.3368 24.9587 63.3524 24.9587 63.446V64.3971C24.9587 64.6622 24.9587 64.8337 25.0688 65.0052V65.0208C25.1946 65.2391 25.3834 65.3327 25.6979 65.3327C25.8866 65.3327 26.154 65.1767 26.2169 64.9428C26.2798 64.7245 26.2798 64.6154 26.2641 64.3971C26.2641 64.3503 26.2641 64.288 26.2641 64.2256V64.0697C26.2641 63.7734 26.2641 63.6331 26.1854 63.4771C26.1225 63.368 26.0596 63.3212 25.7451 63.3212Z" fill="#D4D1E0"/>
<path d="M23.8578 65.6289C23.4331 65.6289 23.1343 65.4729 22.9456 65.1299C22.7883 64.818 22.7883 64.5686 22.7883 64.2099V63.3056C22.7883 63.1964 22.8198 63.0873 22.8984 63.0249C23.0714 62.8534 23.3702 62.869 23.6376 62.869H23.6848C24.1723 62.8534 24.4239 62.8846 24.6127 63.2276C24.7385 63.4459 24.7385 63.6486 24.7228 63.9916V64.1632C24.7228 64.2255 24.7228 64.2879 24.7228 64.3347C24.7228 64.5686 24.7228 64.7245 24.6598 64.9896C24.5969 65.3482 24.2352 65.6289 23.8578 65.6289ZM23.2287 64.9896C23.3545 65.2079 23.5432 65.317 23.8578 65.317C24.0622 65.317 24.3139 65.1455 24.3768 64.9116C24.4397 64.6777 24.4397 64.5686 24.4397 64.3347C24.4397 64.2879 24.4397 64.2255 24.4397 64.1476V63.976C24.4397 63.6642 24.4397 63.5083 24.361 63.3679C24.2824 63.212 24.2195 63.1496 23.7162 63.1808H23.6533C23.4646 63.1808 23.213 63.1808 23.1343 63.2588C23.1343 63.2588 23.1186 63.2744 23.1186 63.3212V64.2099C23.1186 64.5374 23.1186 64.7557 23.2287 64.9896Z" fill="#D4D1E0"/>
<path d="M22.0021 65.738C21.719 65.738 21.3258 65.6756 21.0899 65.1767C20.9326 64.8648 20.9326 64.5685 20.9326 64.1631V63.1496C20.9326 62.9157 21.0742 62.6819 21.3101 62.5571C21.5145 62.4324 21.7347 62.4168 21.9077 62.5103C21.9863 62.5415 22.065 62.5727 22.1436 62.6039C22.3795 62.6974 22.6311 62.791 22.757 63.0405C22.8828 63.29 22.867 63.5083 22.867 63.8981V64.0852C22.867 64.1631 22.867 64.2255 22.867 64.2879C22.867 64.5685 22.867 64.7089 22.8041 65.0051C22.7255 65.4105 22.3638 65.738 22.0021 65.738ZM21.6561 62.7598C21.5931 62.7598 21.5302 62.7754 21.4673 62.8222C21.3415 62.9001 21.2472 63.0405 21.2472 63.1496V64.1631C21.2472 64.5685 21.2472 64.8024 21.373 65.0519C21.4988 65.317 21.6718 65.4261 22.0021 65.4261C22.1908 65.4261 22.4581 65.239 22.521 64.9428C22.584 64.6777 22.584 64.553 22.584 64.2879C22.584 64.2255 22.584 64.1631 22.584 64.0852V63.8981C22.584 63.5394 22.584 63.3679 22.5053 63.1808C22.4424 63.0405 22.3009 62.9937 22.065 62.9001C21.9706 62.869 21.892 62.8378 21.7976 62.791C21.7347 62.7598 21.7032 62.7598 21.6561 62.7598Z" fill="#D4D1E0"/>
<path d="M20.1463 66.1435C19.706 66.1435 19.4072 65.9252 19.2342 65.4886C19.0769 65.1611 19.0769 64.8337 19.0769 64.4283V63.0406C19.0769 62.7911 19.1084 62.3545 19.36 62.2453C19.4229 62.2142 19.5487 62.183 19.706 62.3233C19.8475 62.4325 20.052 62.4636 20.2407 62.4792C20.5552 62.5104 20.9327 62.5572 21.0113 63.0562C21.0428 63.2589 21.0428 63.4148 21.0271 63.6487C21.0271 63.789 21.0113 63.9605 21.0113 64.1944C21.0113 64.288 21.0113 64.3659 21.0113 64.4439C21.0113 64.7713 21.0113 64.9584 20.9484 65.3171C20.8855 65.7693 20.5238 66.1435 20.1463 66.1435ZM19.4858 62.526C19.4544 62.5728 19.3914 62.7287 19.3914 63.025V64.4127C19.3914 64.8181 19.3914 65.0832 19.5173 65.3483V65.3638C19.6745 65.7693 19.9104 65.8316 20.1306 65.8316C20.3193 65.8316 20.5867 65.5977 20.6496 65.2391C20.7125 64.8961 20.7125 64.7401 20.7125 64.4283C20.7125 64.3503 20.7125 64.2724 20.7125 64.1788C20.7125 63.9449 20.7282 63.7578 20.7282 63.6175C20.744 63.3992 20.744 63.2745 20.7125 63.1029C20.6653 62.8379 20.5395 62.8223 20.2092 62.7755C19.9891 62.7443 19.7217 62.7131 19.5173 62.5572C19.5015 62.5416 19.5015 62.5416 19.4858 62.526Z" fill="#D4D1E0"/>
<path d="M18.605 64.9585C18.2747 64.9585 18.0388 64.7869 17.9287 64.4283C17.8501 64.1476 17.8501 63.8826 17.8501 63.5083V62.2142C17.8501 61.84 17.8816 61.6372 18.0388 61.5749C18.1961 61.5125 18.3219 61.6528 18.432 61.7776C18.4792 61.84 18.5421 61.9023 18.5893 61.9335C18.6836 61.9959 18.7623 62.0582 18.8252 62.0894C19.0296 62.2298 19.0925 62.2765 19.1869 62.4948C19.2813 62.7443 19.2813 62.9626 19.2813 63.4304C19.2813 63.8202 19.2813 63.9294 19.2341 64.2724C19.1554 64.6934 18.9038 64.9585 18.605 64.9585ZM18.2118 64.3348C18.3062 64.631 18.4477 64.6622 18.5893 64.6622C18.7308 64.6622 18.8566 64.4907 18.9038 64.2412C18.9353 63.9293 18.9353 63.8358 18.9353 63.446C18.9353 63.0094 18.9353 62.8067 18.8724 62.6196C18.8252 62.4792 18.8094 62.4792 18.6364 62.3545C18.5735 62.3077 18.4949 62.2609 18.3848 62.183C18.3062 62.1206 18.2433 62.0427 18.1804 61.9803C18.1646 61.9647 18.1646 61.9647 18.1489 61.9491C18.1489 62.0115 18.1332 62.0894 18.1332 62.2142V63.4928C18.1489 63.867 18.1489 64.1009 18.2118 64.3348Z" fill="#D4D1E0"/>
<path d="M17.3784 64.1632C17.0481 64.1632 16.8279 63.9916 16.7021 63.633C16.592 63.3524 16.592 63.0873 16.592 62.6975V61.4189C16.592 61.2162 16.6707 61.1226 16.7493 61.0758C16.9223 60.9667 17.1425 61.0447 17.284 61.1226C17.6143 61.263 17.8345 61.4189 17.9603 61.7151C18.0547 61.9646 18.0547 62.1829 18.0547 62.6507C18.0547 63.0405 18.0547 63.1496 18.0075 63.4927C17.9288 63.8981 17.6772 64.1632 17.3784 64.1632ZM16.9066 61.3565C16.9066 61.3565 16.8909 61.3721 16.8909 61.4345V62.7131C16.8909 63.0717 16.8909 63.3056 16.9852 63.5395C17.0796 63.8357 17.2211 63.8669 17.3627 63.8669C17.5042 63.8669 17.63 63.6954 17.6772 63.4459C17.7087 63.1341 17.7087 63.0405 17.7087 62.6507C17.7087 62.2141 17.7087 62.0114 17.6457 61.8243C17.5828 61.6372 17.457 61.5436 17.1425 61.4033C16.9852 61.3253 16.9223 61.3409 16.9066 61.3565Z" fill="#D4D1E0"/>
<path d="M16.0887 62.9782C15.8686 62.9782 15.5697 62.9314 15.4125 62.526C15.3181 62.2921 15.3181 62.0739 15.3181 61.7776V60.7329C15.3181 60.4366 15.3496 60.2495 15.4911 60.1872C15.6484 60.1248 15.7742 60.2339 15.8843 60.3431C15.9315 60.3899 15.9944 60.4366 16.0416 60.4678C16.1516 60.5302 16.2303 60.5614 16.2932 60.6082C16.4819 60.7017 16.5605 60.7485 16.6549 60.9512C16.7493 61.1539 16.7493 61.3566 16.7493 61.7308C16.7493 62.0427 16.7493 62.1518 16.7021 62.4169C16.6235 62.7287 16.3718 62.9782 16.0887 62.9782ZM15.6956 62.4169C15.7742 62.6196 15.9 62.6664 16.073 62.6664C16.2146 62.6664 16.3404 62.526 16.3876 62.3389C16.419 62.105 16.419 62.0271 16.419 61.7152C16.419 61.3566 16.419 61.2007 16.3561 61.0603C16.3089 60.9512 16.3089 60.9512 16.1359 60.8576C16.073 60.8265 15.9786 60.7797 15.8686 60.7173C15.7899 60.6705 15.727 60.6082 15.6641 60.5614C15.6484 60.5458 15.6327 60.5302 15.6169 60.5302C15.6169 60.577 15.6012 60.6393 15.6012 60.7329V61.7776C15.6327 62.0583 15.6327 62.2298 15.6956 62.4169Z" fill="#D4D1E0"/>
</g>
<defs>
<clipPath id="clip0_162_117">
<rect width="53" height="75" fill="white"/>
</clipPath>
</defs>
</svg>
