<svg width="43" height="77" viewBox="0 0 43 77" fill="none" xmlns="http://www.w3.org/2000/svg">
<g clip-path="url(#clip0_162_115)">
<path d="M41.5907 52.6598C40.7684 51.1184 39.4659 49.6944 37.6105 48.2982C35.6274 46.8086 33.4783 45.675 31.2153 44.9181C31.1151 42.5921 30.9182 40.2143 30.6729 38.3238C30.8594 38.2719 31.0425 38.2235 31.2291 38.1682C31.3293 38.1371 31.395 38.0404 31.3846 37.9332C31.3535 37.6429 31.3708 37.3457 31.3846 37.0277C31.4019 36.7132 31.4157 36.3884 31.3846 36.067V36.0635V36.0566C31.3811 36.0255 31.3708 35.9944 31.3535 35.9702V35.9667C31.046 35.4621 30.3965 35.4483 29.8678 35.4898L24.4435 35.9322C24.4159 35.9356 24.3882 35.9426 24.364 35.9564C23.4243 31.7917 22.3498 27.6478 21.0334 23.6005C24.06 22.066 26.2263 19.0937 27.1418 15.2055C27.8743 12.0812 27.47 8.46602 25.905 4.14585C25.6078 3.33019 25.2451 2.397 24.6508 1.61247C23.9943 0.74498 23.141 0.18852 22.246 0.050318C20.7362 -0.184696 19.3128 0.786476 18.3764 1.53647C17.2743 2.41779 16.1618 3.81061 16.0823 5.24491C15.989 5.16888 15.9061 5.08248 15.8093 5.0099C15.6089 4.85091 15.3706 4.66774 15.108 4.51912C14.4826 4.16659 13.8019 4.30484 13.142 4.43963L12.9451 4.47765C12.8691 4.44654 12.7931 4.40853 12.7136 4.38433C11.5355 4.00415 10.3607 4.56405 9.76307 4.93041C9.25173 5.24492 8.91659 5.56634 8.70929 5.93613C8.59873 6.12967 8.52964 6.33704 8.48127 6.55132C8.4709 6.54441 8.46399 6.5375 8.45363 6.53404C7.28584 6.08128 5.89694 6.28866 4.91225 7.06283C3.92756 7.83701 3.40244 9.14347 3.57173 10.3842C3.66848 11.1031 3.97251 11.7494 4.32838 12.4579C4.39057 12.5858 4.45967 12.7102 4.52186 12.8381C3.18479 12.0121 1.7751 11.307 0.303325 10.7575C0.23768 10.7333 0.161668 10.7402 0.102938 10.7817C0.0442087 10.8231 0.00619304 10.8888 0.00619304 10.9614C-0.0387218 13.277 1.34326 15.3749 2.69767 17.1202C3.73764 18.4612 4.85704 19.7711 6.01792 21.0118C6.76766 21.8136 7.65563 22.7191 8.73355 23.3378C10.2296 24.2018 11.9122 24.4472 13.5429 24.4472C14.2754 24.4472 14.9974 24.3988 15.685 24.3331C15.9303 24.3089 16.1653 24.2813 16.3899 24.2502C17.0636 24.1638 17.6441 24.0912 18.3316 24.2018L18.3972 24.2122C18.5492 24.2364 18.7047 24.2605 18.8602 24.2813C18.8636 24.2847 18.8636 24.2917 18.8671 24.2951C20.6948 26.8112 21.3581 29.8837 21.98 33.3499C22.139 34.2312 22.2875 35.1125 22.4395 35.9939L22.3463 36.0008C21.5171 36.063 20.6603 36.1355 19.907 36.5296C19.8863 36.5226 19.8621 36.5192 19.8379 36.5226C19.717 36.533 19.6237 36.6401 19.6341 36.7611L19.7965 38.8555C19.8034 38.9592 19.8863 39.0456 19.9899 39.0595C20.5151 39.1217 21.0334 39.1701 21.5447 39.2081L21.7105 45.7609C17.9169 48.5327 15.0147 51.1145 13.2008 54.6776C11.1935 58.6142 11.2211 63.4908 13.2803 67.4033C13.7744 68.34 14.3963 69.2731 15.2358 70.3342C17.8581 73.6382 20.7016 75.6152 23.6902 76.2096C24.6127 76.3928 25.5525 76.4446 26.4611 76.4446C26.7859 76.4446 27.1072 76.4377 27.425 76.4308C29.3183 76.3755 31.229 76.2199 33.1051 75.9676C34.1312 75.8294 35.2126 75.6531 36.1973 75.1727C37.4031 74.5817 38.3532 73.5691 39.1997 72.5668C39.8423 71.8064 40.5782 70.8837 41.1656 69.826C42.6997 67.0577 42.9657 63.7674 43.021 60.9128C43.0763 58.1168 42.9382 55.1897 41.5907 52.6598ZM30.9283 37.7948C28.9623 38.3754 27.0068 38.7002 24.9822 38.8005C24.8751 38.2993 24.7645 37.7982 24.6574 37.2936C26.5266 37.2383 28.3923 37.0759 30.2372 36.7994C30.4031 36.7752 30.7002 36.7268 30.9628 36.5851C30.9593 36.7234 30.9524 36.8616 30.9455 37.0033C30.9282 37.266 30.9145 37.5286 30.9283 37.7948ZM25.5799 45.5987L24.5434 45.4881C24.1772 43.449 23.8247 41.4168 23.4827 39.4053C23.4758 39.3638 23.4689 39.3258 23.462 39.2843C23.5345 39.2843 23.6106 39.2878 23.6831 39.2878C24.001 39.2878 24.3154 39.2809 24.6298 39.2705C25.0789 41.396 25.5004 43.5181 25.9081 45.6298C25.7976 45.6195 25.687 45.6091 25.5799 45.5987ZM25.998 46.0826C26.2053 47.1505 26.4091 48.2185 26.613 49.2795C27.0517 51.5814 27.5078 53.9592 27.9743 56.2921C28.6618 59.7137 29.3804 62.7551 31.2081 65.2778C30.9455 65.5682 30.4273 65.5889 30.0749 65.4092C29.5947 65.1672 29.2941 64.6557 29.0833 64.2341C28.648 63.3632 28.3647 62.4231 28.0883 61.4623C26.6372 56.3817 25.5695 51.1423 24.6263 45.9407L25.535 46.0375C25.687 46.0548 25.8425 46.0688 25.998 46.0826ZM23.3826 38.8351C23.2962 38.3305 23.2098 37.8259 23.1234 37.3213C23.1856 37.3213 23.2444 37.3248 23.3065 37.3248C23.6071 37.3248 23.9043 37.3144 24.2048 37.3075C24.3154 37.8155 24.4259 38.3201 24.5331 38.8282C24.153 38.8386 23.7695 38.8385 23.3826 38.8351ZM24.4744 36.3673L29.8987 35.9249C30.4031 35.8835 30.7175 35.9353 30.8869 36.0908C30.7348 36.2533 30.4412 36.3189 30.1648 36.3639C28.3094 36.6438 26.4333 36.8063 24.5573 36.8581C24.5193 36.6922 24.4882 36.5298 24.4502 36.3639C24.4606 36.3673 24.4675 36.3708 24.4744 36.3673ZM18.6423 1.88151C19.5129 1.18338 20.8293 0.277862 22.1698 0.488704C22.9507 0.60967 23.7039 1.1039 24.2912 1.87806C24.8475 2.61422 25.1964 3.50941 25.4832 4.29394C27.0207 8.52776 27.4215 12.0633 26.7063 15.1014C25.8771 18.6336 23.9837 21.3848 21.3406 22.9262C21.3441 22.9158 21.3476 22.9089 21.351 22.8986C21.4063 22.8882 21.4581 22.8571 21.4961 22.7983C23.7626 19.121 24.851 14.7594 24.5884 10.4911C24.6955 14.4588 23.6348 18.4265 21.6101 21.7897C21.6205 21.7102 21.6343 21.6307 21.6447 21.5547C21.9349 19.4706 22.2389 17.314 22.2182 15.1642C22.2078 13.8855 22.0731 12.0191 21.0504 10.5814C20.4769 9.77608 19.6891 9.1851 18.9118 8.62521C18.9221 8.57337 18.9152 8.51462 18.8841 8.46623C18.2277 7.41211 17.433 6.46514 16.5243 5.63221C16.3861 4.2256 17.5713 2.73868 18.6423 1.88151ZM14.8832 4.90222C15.1182 5.03356 15.3393 5.2029 15.5259 5.35152C16.4794 6.11186 17.3086 7.00012 18.0169 7.98858L13.9918 5.11307C13.8536 5.01284 13.7016 4.90916 13.5496 4.80893C14.0333 4.71907 14.4894 4.68103 14.8832 4.90222ZM4.00676 10.3215C3.8582 9.23274 4.31771 8.08882 5.18144 7.4079C6.04519 6.72704 7.26484 6.54386 8.28747 6.94477C8.32893 6.96205 8.37385 6.9586 8.41185 6.95168C8.38767 7.20399 8.38421 7.46665 8.38421 7.72932C8.39458 9.47816 8.48786 11.2477 8.57423 12.9758C8.63988 14.2718 8.71589 15.7407 9.30324 17.0229C9.94587 18.4226 11.1482 19.4906 12.2296 20.3823C12.8861 20.9249 14.2232 21.9963 15.6259 22.9088C15.3046 22.7671 14.9832 22.6288 14.6689 22.4802C11.9774 21.3017 9.54506 19.38 8.30475 16.6462C9.69365 20.1646 12.893 22.1138 16.1857 23.6034C14.2992 23.479 12.1364 22.9813 10.5091 21.5815C9.65221 20.8419 9.02339 19.8742 8.40151 18.865C7.08514 16.7256 5.84828 14.4999 4.72189 12.2534C4.38331 11.5829 4.09659 10.9747 4.00676 10.3215ZM8.95084 22.9472C7.9282 22.3562 7.06442 21.4783 6.33888 20.7006C5.18489 19.4703 4.07584 18.1707 3.04277 16.8401C1.79901 15.2365 0.531018 13.3322 0.444604 11.2791C2.00969 11.8909 3.51269 12.6685 4.91194 13.5982C5.88284 15.4646 6.92272 17.3101 8.02142 19.0969C8.6606 20.1372 9.31011 21.136 10.2154 21.9171C11.048 22.6325 12.005 23.1233 12.9966 23.4517C12.9137 23.4448 12.8308 23.4413 12.7513 23.4344C10.744 23.2858 9.00263 22.1072 7.64831 20.6729C6.95731 19.9471 6.33539 19.1592 5.74465 18.3504C7.14734 20.4068 8.8023 22.5185 11.2208 23.4102C12.3437 23.825 13.5667 23.8457 14.7415 23.9563C12.8239 24.0773 10.7337 23.9736 8.95084 22.9472ZM18.4006 23.7594C18.2348 23.7317 18.0759 23.7144 17.9204 23.7075C17.9169 23.7041 17.9135 23.7041 17.91 23.7006C17.9031 23.6972 17.8997 23.6937 17.8927 23.6868C17.8789 23.6764 17.8651 23.6626 17.8478 23.6522C15.9337 22.7951 13.4807 20.8424 12.5168 20.044C11.4768 19.1835 10.3159 18.1535 9.71131 16.8402C9.15851 15.634 9.08596 14.21 9.02031 12.9417C8.93394 11.2309 8.84411 9.4648 8.83374 7.7264C8.83028 7.14922 8.84756 6.59627 9.09632 6.15389C9.26562 5.85321 9.55238 5.58362 9.9946 5.31058C10.5267 4.98225 11.5666 4.48457 12.5755 4.80944C12.997 4.94423 13.3736 5.21727 13.7399 5.47648L18.4628 8.85313C19.2713 9.43376 20.1109 10.0316 20.6913 10.8439C21.6414 12.1779 21.7693 13.9544 21.7796 15.1709C21.8003 17.2861 21.4997 19.4255 21.2095 21.4957C21.1301 22.0659 21.0368 22.7019 20.7224 23.203C20.7086 23.203 20.6913 23.203 20.6775 23.2099C20.5911 23.2376 20.5358 23.3136 20.5289 23.3966C19.7342 19.4013 18.4076 15.52 16.5694 11.9051C18.3142 15.662 19.5165 19.6641 20.1523 23.7354C19.9864 23.8149 19.8102 23.8564 19.6237 23.8702C19.6168 23.8633 19.6133 23.8564 19.6064 23.846C16.8355 21.406 14.4619 18.4614 12.9209 15.0916C14.2753 18.3957 16.4277 21.3403 18.9706 23.8426C18.8048 23.8218 18.6355 23.7976 18.4627 23.7665L18.4006 23.7594ZM19.4198 24.3193C19.7964 24.3227 20.1696 24.2536 20.5013 24.0462C20.5047 24.0428 20.5082 24.0428 20.5116 24.0393C20.5635 24.0048 20.6153 23.9702 20.6671 23.9287C22.0353 28.166 23.1409 32.5138 24.1083 36.8756C23.7524 36.8825 23.4 36.8825 23.0442 36.8791C22.8369 35.6763 22.6261 34.4701 22.4084 33.2674C21.8038 29.877 21.1473 26.8524 19.4198 24.3193ZM22.3773 36.4398L22.5121 36.4294C22.5363 36.578 22.5639 36.7266 22.5881 36.8753C21.8556 36.8649 21.1232 36.8372 20.3941 36.7923H20.3872C21.0022 36.5435 21.7002 36.4916 22.3773 36.4398ZM20.1109 37.1932C20.2111 37.214 20.3043 37.2243 20.37 37.2312C21.1335 37.2796 21.9006 37.3038 22.6711 37.3142C22.7574 37.8188 22.8473 38.3268 22.9371 38.8314C22.5812 38.821 22.2185 38.8037 21.8556 38.7796C21.828 38.7657 21.7969 38.7588 21.7658 38.7588H21.7589C21.7382 38.7588 21.7174 38.7657 21.7002 38.7726C21.2165 38.7381 20.7258 38.6931 20.2283 38.6379L20.1109 37.1932ZM42.5785 60.8954C42.5232 63.6949 42.2675 66.916 40.7784 69.6014C40.2117 70.6279 39.4897 71.5265 38.8608 72.273C38.0454 73.2408 37.1333 74.2119 36 74.7683C35.0775 75.2211 34.0341 75.3904 33.0425 75.5252C31.1837 75.7775 29.2904 75.9296 27.4108 75.9849C26.2396 76.0194 24.9854 76.016 23.7727 75.7741C20.8912 75.2003 18.1341 73.2787 15.5809 70.0576C14.7552 69.0173 14.1471 68.1084 13.6668 67.1959C11.6767 63.408 11.6456 58.6869 13.5908 54.8746C15.3805 51.3631 18.2724 48.8055 22.0624 46.0441C22.0693 46.0406 22.0693 46.0337 22.0763 46.0302C22.0866 46.0199 22.097 46.0095 22.1074 45.9957C22.1143 45.9853 22.1246 45.9749 22.1281 45.9611C22.135 45.9473 22.1385 45.9369 22.1419 45.9231C22.1454 45.9093 22.1488 45.8955 22.1488 45.8782C22.1488 45.8713 22.1523 45.8643 22.1523 45.8574L21.9864 39.232C22.3285 39.2527 22.6705 39.2666 23.0091 39.2735C23.0194 39.3426 23.0333 39.4082 23.0436 39.4774C23.3822 41.4509 23.7243 43.4416 24.0836 45.4392L23.5861 45.3874C23.4617 45.3701 23.3546 45.4634 23.3442 45.5844C23.3304 45.7054 23.4202 45.816 23.5412 45.8263L24.17 45.892C25.1201 51.1454 26.1946 56.4403 27.6664 61.5826C27.9497 62.5676 28.2399 63.5249 28.6891 64.4305C28.9274 64.9109 29.2799 65.4984 29.8741 65.8026C30.0814 65.9097 30.3267 65.965 30.572 65.965C31.0108 65.965 31.4496 65.7819 31.6741 65.3844C31.7191 65.3084 31.7121 65.2116 31.6603 65.1425C29.8154 62.6678 29.0967 59.6333 28.4091 56.2045C27.9427 53.8751 27.4866 51.4972 27.0478 49.1954C26.8509 48.1689 26.654 47.1356 26.4536 46.1021C26.4847 46.1021 26.5158 46.1056 26.5469 46.1056C26.6021 46.1056 26.6574 46.1056 26.7092 46.1021C27.0927 46.0883 27.4763 46.0227 27.8148 45.9639L29.1416 45.7358C29.2625 45.7151 29.342 45.601 29.3212 45.48C29.3005 45.3591 29.1865 45.2796 29.0655 45.3003L27.7388 45.5284C27.3968 45.5872 27.0444 45.6494 26.692 45.6598C26.5849 45.6632 26.4743 45.6563 26.3637 45.6529C25.9526 43.5239 25.5276 41.3845 25.075 39.2417C26.8302 39.1484 28.5335 38.8857 30.2368 38.4399C30.4786 40.32 30.6721 42.6737 30.7689 44.9754C30.7654 44.9823 30.7619 44.9858 30.7585 44.9927C30.7343 45.0618 30.7516 45.1344 30.793 45.1897C30.8241 45.2727 30.9036 45.3314 30.9969 45.3314H31.0073C31.0211 45.3314 31.0314 45.3245 31.0418 45.321C33.2668 46.0607 35.3848 47.177 37.3403 48.6458C39.1438 50.0006 40.4048 51.3796 41.1961 52.8623C42.5021 55.3093 42.6299 58.1675 42.5781 60.8944L42.5785 60.8954Z" fill="#D4D1E0"/>
</g>
<defs>
<clipPath id="clip0_162_115">
<rect width="43" height="76.4444" fill="white"/>
</clipPath>
</defs>
</svg>
