<svg width="43" height="75" viewBox="0 0 43 75" fill="none" xmlns="http://www.w3.org/2000/svg">
<g clip-path="url(#clip0_162_153)">
<path d="M42.8937 5.05051C42.9017 4.90376 42.9047 4.75634 42.9106 4.6115C42.9219 4.3358 42.9278 4.06212 42.9253 3.78616L42.9106 2.17565C42.9101 2.1248 42.886 2.09303 42.8544 2.07194C43.0365 2.00677 43.0527 1.68132 42.8301 1.63451C40.1526 1.07162 37.3898 0.803719 34.668 0.557072C31.8526 0.301923 29.0292 0.136529 26.2035 0.0607797C20.5872 -0.0897918 14.96 0.121651 9.37138 0.706989C6.31937 1.02661 3.25218 1.4326 0.243607 2.05096C0.169871 2.04382 0.0901616 2.08508 0.0893542 2.18246C0.0845102 2.75417 0.0796664 3.32589 0.0748224 3.89766C0.0724004 4.18687 0.0778902 4.474 0.0889775 4.76294C0.0980733 4.9995 0.0989883 5.24097 0.130205 5.47629C0.0819269 5.55057 0.123316 5.68522 0.229398 5.67127C0.95077 5.57661 1.6716 5.48909 2.39265 5.39792C2.29303 6.53487 2.44518 7.72222 2.5813 8.84902C2.71704 9.97202 2.90573 11.089 3.14659 12.1938C3.64718 14.4894 4.37264 16.7337 5.31355 18.883C7.14365 23.0634 9.71956 26.9101 12.9208 30.1394C14.7029 31.9371 16.6944 33.5185 18.8209 34.8783C18.915 34.9787 19.0233 35.0647 19.1217 35.1626C19.2826 35.323 19.4225 35.5041 19.5457 35.6955C19.7702 36.0444 19.944 36.4271 20.0591 36.8269C20.2784 37.589 20.1665 38.4238 19.6983 39.0798C19.5169 39.3339 19.2706 39.5415 19.0239 39.7376C19.0114 39.7404 19.0001 39.7352 18.9871 39.7433C11.2314 44.6415 5.55758 52.6707 3.35331 61.645C3.04309 62.908 2.80159 64.1883 2.63286 65.4784C2.46348 66.7731 2.26321 68.1543 2.39782 69.4584C2.42694 69.7399 2.88447 69.8429 2.92721 69.5176C3.07037 68.4271 3.05939 67.3173 3.17323 66.2219C3.2932 65.068 3.4756 63.9204 3.71107 62.7851C4.17727 60.5375 4.86285 58.3349 5.73869 56.2166C7.48278 51.9981 10.0114 48.117 13.1751 44.8515C14.4851 43.4994 15.8957 42.2573 17.4002 41.1388C17.9639 40.7862 18.5155 40.4166 19.0368 39.9959C19.0618 39.9796 19.0852 39.9613 19.1103 39.9451C19.1143 39.9425 19.1134 39.938 19.1169 39.9352C19.4434 39.6677 19.7709 39.3848 19.9792 39.0098C20.3967 38.2585 20.5084 37.4977 20.2676 36.6712C20.1452 36.2511 19.9608 35.8421 19.7223 35.4766C19.5474 35.2087 19.2892 34.8407 18.9764 34.697C11.4293 29.7526 6.02734 21.7512 3.92845 12.9279C3.63383 11.6893 3.40536 10.4347 3.2496 9.1705C3.09244 7.89453 3.10245 6.60053 2.94045 5.32871C7.57347 4.74991 12.2048 4.26136 16.8799 4.07886C22.3862 3.86392 27.9076 3.98076 33.3996 4.43673C35.7745 4.63389 38.1348 4.94768 40.4997 5.22157C40.3574 6.31034 40.368 7.41808 40.2543 8.51159C40.1343 9.66537 39.9519 10.8129 39.7165 11.9482C39.2503 14.196 38.5647 16.3985 37.6888 18.5169C35.9448 22.7353 33.4162 26.6164 30.2524 29.8818C28.4681 31.7236 26.501 33.3661 24.3571 34.7607C24.3481 34.7669 24.3394 34.7725 24.3306 34.779C24.3261 34.782 24.3218 34.7853 24.3173 34.7883C24.3141 34.7903 24.3149 34.7939 24.312 34.7961C24.0782 34.9771 23.8836 35.2662 23.7425 35.4824C23.5037 35.8481 23.3214 36.2566 23.1989 36.677C22.9577 37.5046 23.0735 38.262 23.4914 39.0141C23.6805 39.3545 23.973 39.6168 24.2698 39.8627C24.2736 39.8949 24.2882 39.9259 24.3222 39.9481C24.5372 40.0875 24.7441 40.2381 24.9556 40.3824C25.2434 40.5927 25.5337 40.8003 25.8329 40.9925C32.6567 45.9782 37.5307 53.5304 39.4991 61.8056C39.7937 63.0441 40.0222 64.2988 40.1779 65.563C40.3373 66.8567 40.3233 68.1694 40.4925 69.4584C40.5013 69.5254 40.5348 69.5667 40.5676 69.6072C35.765 70.2142 30.9661 70.7321 26.1201 70.9212C20.6139 71.1362 15.0925 71.0194 9.6005 70.5634C6.46318 70.3029 3.35127 69.8381 0.220571 69.5319C-0.0105388 69.5094 -0.0571483 69.8337 0.106416 69.9496C0.0983963 70.0964 0.0953823 70.2437 0.0894619 70.3886C0.0782132 70.6643 0.0722928 70.938 0.0748224 71.214C0.0797201 71.7508 0.0846179 72.2876 0.0895157 72.8244C0.0900001 72.8753 0.114005 72.9071 0.145598 72.9281C-0.0363193 72.9934 -0.0525735 73.3188 0.170033 73.3656C2.84745 73.9285 5.61033 74.1964 8.33203 74.443C11.1475 74.6982 13.9709 74.8636 16.7966 74.9393C22.4129 75.0899 28.0401 74.8784 33.6287 74.2932C36.6807 73.9735 39.7479 73.5675 42.7565 72.9491C42.8302 72.9563 42.9099 72.915 42.9107 72.8176L42.9253 71.1025C42.9277 70.8133 42.9222 70.5261 42.9111 70.2372C42.902 70.0006 42.9011 69.7592 42.8699 69.5239C42.9182 69.4496 42.8768 69.3149 42.7707 69.3288C42.1729 69.4072 41.5757 69.4792 40.9782 69.5553C40.9972 69.5198 41.0248 69.4934 41.0297 69.4451C41.1498 68.2754 40.9867 67.0471 40.8462 65.8844C40.7106 64.7614 40.5218 63.6444 40.2809 62.5397C39.7804 60.244 39.0549 57.9997 38.114 55.8505C36.2839 51.67 33.708 47.8232 30.5067 44.594C28.6956 42.7671 26.6698 41.1611 24.5042 39.7864C24.2398 39.5782 23.9703 39.3582 23.7746 39.0859C23.3236 38.4582 23.1923 37.6428 23.3875 36.9048C23.5009 36.4756 23.6846 36.0612 23.9257 35.6898C24.0497 35.4987 24.19 35.3183 24.3512 35.1577C24.4711 35.0383 24.6086 34.9438 24.7111 34.8093C32.3262 29.8962 37.8961 21.9565 40.0742 13.0884C40.3844 11.8255 40.6259 10.5451 40.7947 9.25502C40.9639 7.96162 41.1637 6.582 41.0299 5.2789C41.6128 5.34468 42.1956 5.41106 42.7795 5.46817C43.0106 5.49078 43.0572 5.16648 42.8937 5.05051ZM26.1201 74.2911C20.6139 74.506 15.0925 74.3892 9.6005 73.9332C6.49736 73.6756 3.41887 73.219 0.322671 72.9128C0.345707 72.89 0.36293 72.8594 0.363306 72.8176C0.36815 72.2806 0.372994 71.7435 0.377838 71.2064C0.380206 70.9409 0.375147 70.6775 0.364275 70.4122C0.359108 70.286 0.358301 70.1575 0.353188 70.0294C2.97366 70.5666 5.67195 70.8321 8.33203 71.0732C11.1475 71.3284 13.9709 71.4937 16.7966 71.5695C22.4129 71.72 28.0401 71.5086 33.6287 70.9233C36.6515 70.6067 39.6889 70.2041 42.6699 69.5956C42.6476 69.8106 42.6445 70.0297 42.6363 70.244C42.6252 70.5331 42.6198 70.8206 42.6222 71.11C42.6269 71.6453 42.6315 72.1805 42.636 72.7157C37.1415 73.4354 31.6617 74.0747 26.1201 74.2911ZM26.2035 3.43063C20.5872 3.28006 14.96 3.4915 9.37138 4.07678C6.34854 4.3934 3.31117 4.79602 0.330152 5.40452C0.352435 5.18959 0.35561 4.9704 0.363791 4.75613C0.374878 4.46697 0.380314 4.17951 0.377838 3.89014C0.37321 3.35488 0.368581 2.81968 0.36406 2.28442C5.85855 1.56475 11.3383 0.925408 16.8799 0.70906C22.3862 0.494129 27.9076 0.610914 33.3996 1.06693C36.5028 1.32453 39.5812 1.7811 42.6774 2.08726C42.6543 2.11009 42.6372 2.14066 42.6368 2.18246C42.6319 2.71951 42.6271 3.25662 42.6222 3.79368C42.6199 4.05918 42.6249 4.32256 42.6358 4.5879C42.641 4.71417 42.6418 4.84267 42.6469 4.97073C40.0264 4.43346 37.3281 4.16801 34.668 3.92692C31.8526 3.67177 29.0292 3.50638 26.2035 3.43063Z" fill="#D4D1E0"/>
<path d="M5.08054 69.3942C9.29392 69.9981 13.5981 70.1866 17.8494 70.2611C22.1605 70.3367 26.4822 70.2052 30.7792 69.8399C33.1581 69.6376 35.552 69.412 37.9097 69.0256C38.0771 68.9981 38.0841 68.7738 37.9815 68.6736C37.631 67.8131 37.0886 67.0052 36.6085 66.2155C36.1213 65.4143 35.6156 64.6249 35.0913 63.8481C34.0534 62.3106 32.9423 60.8241 31.7634 59.3945C29.3318 56.4455 26.6027 53.7623 23.625 51.3821C22.8876 50.1462 22.8541 48.6756 22.7187 47.2733C22.5742 45.7766 22.4395 44.2785 22.3575 42.7767C22.2776 41.3156 22.2575 39.8525 22.2986 38.3897C22.3401 36.9096 22.4009 35.3024 22.9512 33.9076C22.9833 33.9021 23.0166 33.8887 23.0499 33.865C26.0412 31.7364 28.7525 29.2227 31.0576 26.3462C32.1739 24.9531 33.1962 23.4818 34.1104 21.9451C34.5792 21.1571 35.0198 20.3519 35.431 19.5316C35.8305 18.7343 36.2915 17.8998 36.5292 17.0352C36.5369 17.0069 36.5262 16.986 36.5214 16.9624C36.7289 16.8669 36.738 16.4621 36.4679 16.4216C32.6362 15.8466 28.7111 15.6742 24.8416 15.6039C20.912 15.5324 16.9715 15.6561 13.0556 16.0018C11.8629 16.107 10.6658 16.2213 9.47218 16.3612C9.32648 15.8296 9.17551 15.3005 8.97061 14.7983C8.88643 14.592 8.54558 14.6087 8.56108 14.8648C8.59257 15.3856 8.7113 15.9154 8.86485 16.437C8.08896 16.5348 7.31457 16.6416 6.54589 16.7735C6.39132 16.8 6.37996 16.9888 6.45892 17.0968C6.83847 18.4537 7.62448 19.7894 8.29483 21.0156C8.99704 22.3003 9.77099 23.545 10.6155 24.7388C12.2706 27.0786 14.1945 29.2262 16.3538 31.0991C17.5534 32.1396 18.828 33.0896 20.1544 33.9575C20.659 35.2818 20.7465 36.7784 20.7943 38.1799C20.8453 39.6788 20.8269 41.1796 20.7479 42.6771C20.6687 44.1791 20.5353 45.6775 20.3914 47.1744C20.2549 48.5944 20.2224 50.0904 19.4918 51.3481C16.5458 53.7137 13.83 56.358 11.3963 59.2609C10.4368 60.4054 9.53423 61.5973 8.66485 62.8133C8.86808 61.6208 9.15603 60.4432 9.5296 59.2908C10.2833 56.9658 11.4557 54.9442 12.6538 52.8401C12.7587 52.6559 12.4908 52.4463 12.3521 52.6161C10.8456 54.4609 9.8267 56.8245 9.08891 59.0811C8.60511 60.561 8.27986 62.0846 8.07787 63.6259C8.05742 63.6556 8.03503 63.6837 8.01463 63.7134C7.4833 64.4872 6.97076 65.2741 6.47775 66.0734C5.96128 66.9107 5.36736 67.7737 5.00169 68.6917C4.97947 68.7476 4.99674 68.8047 5.0257 68.8544C4.81972 68.9517 4.81068 69.3555 5.08054 69.3942ZM6.65348 66.6017C7.07098 65.9212 7.51 65.2545 7.95532 64.5923C7.90031 65.1857 7.86334 65.7811 7.84918 66.3779C7.84197 66.6813 8.30575 66.6684 8.31404 66.3663C8.33826 65.4887 8.42373 64.6161 8.53853 63.7477C9.52374 62.3385 10.563 60.968 11.6699 59.6546C14.1011 56.7698 16.8139 54.1298 19.7509 51.7768C19.8068 51.7617 19.859 51.7272 19.895 51.6614C20.5535 50.4595 20.6362 49.0508 20.7627 47.7112C20.9178 46.0686 21.0662 44.4247 21.1511 42.7767C21.2339 41.1691 21.2592 39.5585 21.1447 37.952C21.0488 36.6054 20.9588 35.2054 20.4627 33.94C20.5591 33.8328 20.5794 33.6396 20.4218 33.537C17.4174 31.5799 14.7193 29.1625 12.4377 26.3785C11.2728 24.957 10.2195 23.4411 9.27858 21.859C8.82524 21.0967 8.39806 20.3185 7.99703 19.5267C7.603 18.7489 7.28524 17.9129 6.86764 17.147C7.58707 17.0745 8.3057 17.0023 9.02416 16.931C9.13784 17.2736 9.25624 17.6122 9.37115 17.937C9.72541 18.9384 10.1372 19.9208 10.6051 20.8733C11.5599 22.8172 12.7675 24.5993 14.165 26.2427C14.2861 26.3851 14.5373 26.1821 14.4197 26.0334C13.1372 24.4112 12.0317 22.6334 11.1273 20.7682C10.6701 19.8253 10.2639 18.8587 9.91717 17.8686C9.80318 17.5432 9.70678 17.2088 9.61351 16.8727C12.4882 16.5914 15.3603 16.3421 18.2551 16.2453C22.1128 16.1164 25.9783 16.1705 29.8306 16.4131C31.9561 16.547 34.0708 16.779 36.1916 16.9635C35.7593 17.7138 35.4504 18.5494 35.0582 19.3233C34.6568 20.1154 34.2279 20.8932 33.7725 21.6548C32.8443 23.2072 31.8062 24.691 30.6675 26.0923C28.3898 28.8952 25.7228 31.3552 22.7891 33.4376C22.6668 33.5245 22.6617 33.6642 22.7152 33.7697C22.1679 35.049 22.0634 36.475 21.9631 37.8515C21.8433 39.4956 21.8642 41.1413 21.9485 42.7868C22.031 44.3985 22.1752 46.006 22.3265 47.6122C22.4537 48.9625 22.5345 50.3815 23.1767 51.6012C23.1824 51.6239 23.193 51.6455 23.2083 51.6669C23.2092 51.6686 23.2098 51.6704 23.2107 51.6721C23.2356 51.7175 23.2688 51.7444 23.3045 51.7638C26.2023 54.0767 28.8759 56.6718 31.2669 59.518C32.4934 60.9781 33.6443 62.5031 34.7191 64.081C35.2467 64.8556 35.7559 65.6429 36.2463 66.442C36.6922 67.1686 37.0883 67.9483 37.5694 68.6535C33.4371 69.0643 29.3216 69.4742 25.1674 69.6125C20.8923 69.7548 16.6089 69.6984 12.3392 69.4379C9.98693 69.2944 7.64595 69.0468 5.29852 68.8465C5.80418 68.1406 6.1989 67.3426 6.65348 66.6017Z" fill="#D4D1E0"/>
<path d="M29.9319 22.6293C29.9204 22.6453 29.9218 22.6529 29.9345 22.6255L29.9337 22.6265C29.9332 22.6275 29.9324 22.6284 29.9319 22.6293Z" fill="#D4D1E0"/>
<path d="M8.53309 12.958C8.50177 12.5438 8.45021 12.1318 8.40327 11.7191C8.37981 11.5126 8.35666 11.3062 8.33282 11.0997C8.30935 10.8965 8.29089 10.6825 8.2199 10.4903C8.17555 10.3702 7.95876 10.3405 7.941 10.4972C7.8945 10.9069 7.99697 11.3446 8.04837 11.7518C8.10139 12.1715 8.1509 12.5914 8.21963 13.0089C8.24924 13.189 8.54676 13.1388 8.53309 12.958Z" fill="#D4D1E0"/>
</g>
<defs>
<clipPath id="clip0_162_153">
<rect width="43" height="75" fill="white"/>
</clipPath>
</defs>
</svg>
